<svg width="64" height="64" viewBox="0 0 64 64" fill="none" xmlns="http://www.w3.org/2000/svg">
<path d="M31.5098 0L0 31.5098L31.5098 63.0197L63.0197 31.5098L31.5098 0ZM31.5098 2.0356L60.9841 31.5098L32.1506 60.3483V51.1018L35.1325 48.115V46.0794L32.1506 49.0662V45.4682L46.5624 31.0515L35.0241 19.2223L24.2448 30.0263L32.19 37.9764L37.8926 32.2738L33.1068 27.4929L32.0865 28.5082L35.8521 32.2738L32.19 35.9359L26.2754 30.0213L35.0142 21.2924L44.5367 31.0515L31.4605 44.1226L18.2809 30.7163L31.8549 17.1227L30.8691 16.1073L16.2503 30.7064L30.7064 45.414V54.5372L27.7837 51.6144V53.65L30.7064 56.5728V60.1807L2.0356 31.5098L31.5098 2.0356Z" fill="black"/>
</svg>
